{
  "accessors": [
    {
      "bufferView": 1,
      "componentType": 5126,
      "count": 47930,
      "max": [
        4.0,
        4.330127239227295,
        1.0
      ],
      "min": [
        -4.0,
        -2.598076105117798,
        -1.0
      ],
      "type": "VEC3"
    },
    {
      "bufferView": 1,
      "byteOffset": 575160,
      "componentType": 5126,
      "count": 47930,
      "max": [
        1.0,
        1.0,
        0.9999834895133972
      ],
      "min": [
        -1.0,
        -1.0,
        -0.9999834895133972
      ],
      "type": "VEC3"
    },
    {
      "bufferView": 0,
      "componentType": 5125,
      "count": 276186,
      "type": "SCALAR"
    }
  ],
  "asset": {
    "extras": {
      "author": "Michael Ostroff (https://sketchfab.com/MichaelOstroff)",
      "license": "CC-BY-4.0 (http://creativecommons.org/licenses/by/4.0/)",
      "source": "https://sketchfab.com/3d-models/penrose-triangle-large-3e16e9c7432b4ac6b7d89eb1f3a2d321",
      "title": "Penrose Triangle-Large"
    },
    "generator": "Sketchfab-15.81.0",
    "version": "2.0"
  },
  "bufferViews": [
    {
      "buffer": 0,
      "byteLength": 1104744,
      "name": "floatBufferViews",
      "target": 34963
    },
    {
      "buffer": 0,
      "byteLength": 1150320,
      "byteOffset": 1104744,
      "byteStride": 12,
      "name": "floatBufferViews",
      "target": 34962
    }
  ],
  "buffers": [
    {
      "byteLength": 2255064,
      "uri": "scene.bin"
    }
  ],
  "materials": [
    {
      "doubleSided": true,
      "name": "Scene_-_Root",
      "pbrMetallicRoughness": {
        "roughnessFactor": 0.6
      }
    }
  ],
  "meshes": [
    {
      "name": "Object_0",
      "primitives": [
        {
          "attributes": {
            "NORMAL": 1,
            "POSITION": 0
          },
          "indices": 2,
          "material": 0,
          "mode": 4
        }
      ]
    }
  ],
  "nodes": [
    {
      "children": [
        1
      ],
      "matrix": [
        1.0,
        0.0,
        0.0,
        0.0,
        0.0,
        0.9542757272720338,
        -0.29892778396606423,
        0.0,
        0.0,
        0.29892778396606423,
        0.9542757272720338,
        0.0,
        0.0,
        0.0,
        0.0,
        1.0
      ],
      "name": "Sketchfab_model"
    },
    {
      "children": [
        2
      ],
      "name": "PenroseTriangeLarge.stl.cleaner.materialmerger.gles"
    },
    {
      "mesh": 0,
      "name": "Object_2"
    }
  ],
  "scene": 0,
  "scenes": [
    {
      "name": "Sketchfab_Scene",
      "nodes": [
        0
      ]
    }
  ]
}
